<?xml version="1.0" encoding="utf-8"?>
<!-- Generator: Adobe Illustrator 16.0.0, SVG Export Plug-In . SVG Version: 6.00 Build 0)  -->
<!DOCTYPE svg PUBLIC "-//W3C//DTD SVG 1.0//EN" "http://www.w3.org/TR/2001/REC-SVG-20010904/DTD/svg10.dtd" [
	<!ENTITY ns_flows "http://ns.adobe.com/Flows/1.0/">
	<!ENTITY ns_extend "http://ns.adobe.com/Extensibility/1.0/">
	<!ENTITY ns_ai "http://ns.adobe.com/AdobeIllustrator/10.0/">
	<!ENTITY ns_graphs "http://ns.adobe.com/Graphs/1.0/">
]>
<svg version="1.0" id="Calque_1" xmlns:x="&ns_extend;" xmlns:i="&ns_ai;" xmlns:graph="&ns_graphs;"
	 xmlns="http://www.w3.org/2000/svg" xmlns:xlink="http://www.w3.org/1999/xlink" xmlns:a="http://ns.adobe.com/AdobeSVGViewerExtensions/3.0/"
	 x="0px" y="0px" width="500px" height="520px" viewBox="0 0 500 520" style="enable-background:new 0 0 500 520;"
	 xml:space="preserve">
<style type="text/css">
<![CDATA[
	.st0{fill:#444444;}
]]>
</style>
<g>
	<path class="st0" d="M237.8027,77.9531c1.5933,0.5,3.1553,0.6396,4.7041,0.6714c1.5503,0.0176,3.085-0.1074,4.6079-0.353
		c1.5244-0.2441,3.0386-0.6147,4.5366-1.1279c1.498-0.5264,2.9854-1.1631,4.4395-2.1631c-1.6152-0.7104-3.1934-1.0601-4.7646-1.2979
		c-1.5688-0.2246-3.123-0.3071-4.666-0.2651c-1.5439,0.0425-3.0767,0.2065-4.5942,0.5117c-1.5176,0.3213-3.0229,0.748-4.4956,1.5381
		c-0.3013,0.1602-0.5444,0.4375-0.6548,0.7891C236.6914,76.9683,237.0874,77.7295,237.8027,77.9531"/>
	<path class="st0" d="M260.2041,121.7773c1.5088-0.7222,2.749-1.6831,3.9102-2.7183c1.1475-1.0439,2.1924-2.1836,3.1416-3.4019
		c0.9512-1.2217,1.8057-2.5244,2.5605-3.9233c0.7373-1.4072,1.3945-2.8892,1.7803-4.6128c-1.667,0.5806-3.0654,1.4019-4.3779,2.3003
		c-1.3018,0.9053-2.502,1.9053-3.6035,2.9897c-1.1025,1.085-2.1152,2.25-3.0215,3.5103c-0.8955,1.2695-1.709,2.6123-2.2529,4.1948
		c-0.1104,0.3228-0.0996,0.6914,0.0576,1.0229C258.7227,121.8145,259.5332,122.1001,260.2041,121.7773"/>
	<path class="st0" d="M304.1191,141.5166c0.6338,0.3975,1.4707,0.2065,1.8682-0.4272c0.8877-1.4189,1.4219-2.896,1.8457-4.3911
		c0.4102-1.4961,0.6826-3.0161,0.834-4.5581c0.1475-1.54,0.1758-3.0996,0.0615-4.6836c-0.127-1.5859-0.3652-3.1909-0.9639-4.854
		c-1.0996,1.3848-1.8369,2.8271-2.4668,4.2886c-0.6172,1.4639-1.0928,2.9502-1.4434,4.457c-0.3525,1.5078-0.583,3.0342-0.6758,4.584
		c-0.0752,1.5522-0.0449,3.1226,0.3447,4.752C303.6016,141.0156,303.8096,141.3208,304.1191,141.5166"/>
	<path class="st0" d="M352.1826,122.4624c1.0879,1.0972,2.2598,2.103,3.5244,3c1.2734,0.8877,2.6172,1.6938,4.2021,2.2285
		c0.3242,0.1094,0.6924,0.0962,1.0234-0.064c0.6719-0.3267,0.9541-1.1357,0.6299-1.8096c-0.7305-1.5044-1.6982-2.7397-2.7383-3.8911
		c-1.0518-1.1411-2.1943-2.1772-3.417-3.1201c-1.2266-0.9438-2.5332-1.7939-3.9346-2.5366
		c-1.4131-0.7319-2.8945-1.3818-4.6201-1.7573c0.5889,1.665,1.4199,3.0571,2.3184,4.3662
		C350.0869,120.1743,351.0898,121.3667,352.1826,122.4624"/>
	<path class="st0" d="M171.4121,196.8779c-3.6401-0.6592-7.29-1.0884-10.9434-1.436c-3.6519-0.3594-7.3105-0.5859-10.9712-0.7837
		c-3.6621-0.1533-7.3262-0.2798-10.9932-0.271c-3.6675-0.0054-7.3403,0.0713-11.0229,0.375
		c-1.0229,0.0845-1.9014,0.8506-2.084,1.9121c-0.2134,1.2563,0.6318,2.4497,1.8877,2.6621
		c3.6416,0.6211,7.2935,1.0132,10.9487,1.3228c3.6553,0.3247,7.314,0.5132,10.9761,0.6763c3.6621,0.1196,7.3281,0.21,10.9985,0.165
		c3.6689-0.0303,7.3433-0.1426,11.0259-0.4863c0.9082-0.0859,1.6899-0.7661,1.8604-1.707
		C173.3018,198.1709,172.5488,197.0835,171.4121,196.8779"/>
	<path class="st0" d="M168.7954,205.4609l-37.1572-1.4185c-1.1938-0.042-2.2241,0.8633-2.3169,2.0635
		c-0.0962,1.2329,0.8252,2.3086,2.0586,2.4063l25.9692,2.0181c-0.0435,0.2432-0.0762,0.4897-0.0762,0.7456
		c0,2.3599,1.9092,4.2715,4.2637,4.2715c2.353,0,4.2617-1.9116,4.2617-4.2715c0-0.0313-0.0088-0.0601-0.0088-0.0913l2.6611,0.208
		c0.0366,0.002,0.083,0.0054,0.1191,0.0054c1.6382,0.0635,3.0195-1.2158,3.0815-2.856
		C171.7119,206.9038,170.4355,205.522,168.7954,205.4609"/>
	<path class="st0" d="M365.4521,241.1304c2.8389-1.3281,5.5947-2.7803,8.2959-4.3066c2.7109-1.5186,5.3887-3.0879,8.0166-4.7261
		c2.6602-1.6006,5.2334-3.3232,7.8379-5.001c2.5322-1.73,5.0889-3.4268,7.5732-5.231c0.3652-0.1802,0.8848-0.3667,1.3359-0.4727
		c0.5068-0.1147,1.0088-0.2021,1.4922-0.1875c0.4824,0.0127,0.9229,0.1021,1.3496,0.2969c0.1895,0.0718,0.5137,0.271,0.7754,0.4155
		l0.8271,0.4663l6.6592,3.6709l6.6973,3.5967c2.2432,1.1826,4.4961,2.3481,6.7598,3.4873
		c-2.0674-1.4678-4.1514-2.9087-6.2471-4.3315l-6.3105-4.2222l-6.3525-4.1509l-1.6572-1.0566
		c-0.6826-0.4165-1.4814-0.6812-2.2539-0.7871c-0.7813-0.105-1.5498-0.0933-2.2832,0.0352
		c-0.7549,0.1362-1.3984,0.3008-2.1846,0.6377l-0.0479,0.0244l-0.1143,0.0684c-2.6563,1.6006-5.2363,3.3125-7.8438,4.9902
		c-2.5605,1.7471-5.1475,3.4473-7.6553,5.2705c-2.5322,1.7871-5.0205,3.6421-7.4736,5.5474
		C370.1895,237.061,367.7813,239.0347,365.4521,241.1304"/>
	<path class="st0" d="M292.6338,214.6826l9.4844-7.0674l9.4082-7.167l1.168-0.9053c0.375-0.2837,0.8232-0.6504,1.1016-0.8267
		c0.5996-0.3701,1.2686-0.6162,2.0059-0.749c0.7334-0.1328,1.5293-0.1318,2.335-0.061c0.4004,0.0386,0.8105,0.1006,1.21,0.1865
		c0.2959,0.0601,0.6475,0.1519,0.9023,0.2354c8.5615,4.3687,17.2568,8.4453,26.0869,12.2407
		c4.4365,1.8896,8.8955,3.728,13.4248,5.4194c4.5098,1.7314,9.082,3.3359,13.749,4.731c-4.0576-2.6943-8.2158-5.1787-12.4326-7.5352
		c-4.1992-2.3979-8.4678-4.6484-12.7578-6.8481c-8.5986-4.3677-17.3252-8.4531-26.1924-12.2427l-0.1621-0.0693
		c-0.0342-0.0151-0.0723-0.0288-0.1133-0.0386c-0.7002-0.1909-1.1924-0.2646-1.7842-0.3452
		c-0.5732-0.0728-1.1475-0.1157-1.7227-0.1211c-1.1611-0.021-2.3506,0.1211-3.5244,0.4575
		c-1.1758,0.3345-2.3389,0.9087-3.3105,1.729l-2.292,2.0142l-8.8223,7.8398l-8.7441,7.9395
		c-2.8906,2.6758-5.7842,5.354-8.623,8.0957C286.2627,219.334,289.4463,217.0103,292.6338,214.6826"/>
	<path class="st0" d="M335.6143,257.1138c-0.083-1.0859-0.0996-2.1836-0.1484-3.2842c-0.0654-1.0957-0.2998-2.1602-0.7227-3.1709
		c-0.4209-1.0117-0.9512-1.9932-1.6094-2.9277c-0.6826-0.9297-1.4395-1.8291-2.5254-2.6045
		c-0.0244-0.0205-0.0615-0.0381-0.0928-0.0488c-0.1787-0.0566-0.3682,0.043-0.4277,0.2217c-0.8057,2.46-0.833,4.6006-0.6748,6.6992
		c0.0928,1.043,0.3447,2.0439,0.7441,3.0166c0.4004,0.9688,0.8369,1.9375,1.1436,2.9385c0.3281,0.9941,0.6201,1.998,0.9199,3.0039
		c0.3037,1.0034,0.627,2.0112,0.9023,3.0269c0.624,2.0264,1.1201,4.0801,1.6914,6.1641l0.0039,0.0068
		c0.0273,0.1025,0.1172,0.1865,0.2314,0.2002c0.1543,0.0205,0.2959-0.0869,0.3164-0.2383c0.2891-2.1465,0.4443-4.3203,0.4795-6.4902
		c0.0234-1.0889-0.0068-2.1729-0.0205-3.2632C335.7617,259.2827,335.707,258.1948,335.6143,257.1138"/>
	<path class="st0" d="M325.4346,251.3979l-0.5547-2.1865c-0.1865-0.7236-0.2969-1.4844-0.4268-2.2354
		c-0.1426-0.7451-0.4141-1.4365-0.835-2.0693c-0.8545-1.2549-1.9082-2.4268-3.7031-3.2939
		c-0.0107-0.0049-0.0205-0.0107-0.0342-0.0137c-0.1689-0.0576-0.3516,0.0303-0.4102,0.1973
		c-0.6582,1.8828-0.5723,3.4561-0.293,4.9492c0.1514,0.7432,0.4482,1.4238,0.875,2.0518c0.4346,0.625,0.8965,1.2383,1.2744,1.8857
		l1.1543,1.9365l1.2168,1.9102c0.8428,1.2607,1.6777,2.5254,2.5977,3.7539c0.0508,0.0684,0.1406,0.1094,0.2334,0.0977
		c0.1348-0.0195,0.2275-0.1465,0.21-0.2832c-0.2168-1.5176-0.5195-3.002-0.8164-4.4883L325.4346,251.3979z"/>
	<path class="st0" d="M315.3398,245.4438l-0.334-0.9648c-0.1143-0.3193-0.1611-0.6924-0.2305-1.0469
		c-0.0732-0.3506-0.2588-0.6133-0.5723-0.7822c-0.3096-0.168-0.6787-0.29-1.1543-0.333c-0.4609-0.0498-0.9961-0.0469-1.7393,0.1191
		c-0.1592,0.0352-0.2998,0.1367-0.3789,0.293c-0.3516,0.6758-0.4932,1.1924-0.5615,1.6514
		c-0.0801,0.4697-0.0596,0.8584,0.0244,1.2021c0.0859,0.3438,0.292,0.5908,0.6123,0.7529c0.3242,0.1572,0.6719,0.2959,0.9512,0.4893
		l0.8467,0.5703l0.9063,0.5254c0.627,0.3311,1.2471,0.667,1.9434,0.9473c0.042,0.0176,0.0898,0.0234,0.1387,0.0176
		c0.1504-0.0195,0.2607-0.1592,0.2402-0.3105c-0.0898-0.7451-0.2588-1.4307-0.416-2.1221L315.3398,245.4438z"/>
	<path class="st0" d="M437.0283,176.2241c0.0957,0.0503,0.1895,0.106,0.2852,0.1577c-0.1025-0.0771-0.2061-0.1523-0.3096-0.2305
		C409.8086,99.0869,336.2559,43.7095,249.998,43.7095c-109.3115,0-198.2432,88.9321-198.2432,198.2432
		c0,109.314,88.9316,198.2466,198.2432,198.2466c109.3154,0,198.2471-88.9326,198.2471-198.2466
		C448.2451,218.9229,444.2832,196.8027,437.0283,176.2241 M275.2256,53.2178c28.8867,3.8408,55.7422,14.1836,79.0547,29.5015
		c-4.8408,9.979-13.0469,17.8506-22.7793,21.8721c-5.1543,2.1929-10.7246,3.2583-16.2578,3.2432
		c-5.5293,0.0063-11.0313-1.0869-16.1025-3.23c-10.166-4.2603-18.4414-12.7661-22.5234-23.1309l-0.7686-1.9473l-0.585-2.0122
		c-0.1836-0.6738-0.4209-1.3408-0.5693-2.0254l-0.3955-2.0688c-0.2959-1.3784-0.5273-2.7754-0.624-4.189
		c-0.1309-1.4092-0.1719-2.8276-0.1553-4.249C273.5332,61.041,274.1367,57.0884,275.2256,53.2178 M110.8057,112.1768
		c4.9111-3.292,10.0049-6.2764,15.2754-8.8359c7.292-3.5698,14.9399-6.334,22.7754-7.8438
		c7.8242-1.5078,15.832-1.7588,23.5942-0.3804c7.7617,1.3467,15.2202,4.334,22.0005,8.5591
		c6.7729,4.2495,12.9448,9.6035,18.4502,15.6494c4.4526,4.8638,8.458,10.1763,12.1855,15.7134
		c-15.0654-1.4307-30.1895,0.1865-44.728,3.6812c-14.5605,3.521-28.6084,8.9355-41.8735,15.8003
		c-13.3306,6.8926-25.7368,15.5435-36.8867,25.5869c-9.2368,8.3438-17.6597,17.6289-24.8911,27.8862
		c-0.0156,0.0215-0.0376,0.0347-0.0552,0.0562c-6.1011,7.5254-11.6924,15.2754-16.7515,23.1475
		C62.4673,185.3325,81.3413,143.7568,110.8057,112.1768 M195.6567,387.582c-0.3564,0.5713-0.73,1.126-1.1001,1.6807
		c-0.7671-0.5059-1.5352-1.0156-2.2915-1.543c-1.6553-1.1816-3.2539-2.4531-4.8027-3.7969
		c-3.083-2.6973-5.9355-5.7051-8.5488-8.9395c-5.228-6.4736-9.5239-13.791-13.105-21.4639
		c-3.583-7.6787-6.4546-15.7373-8.7798-23.958c-2.186-7.8057-3.9482-15.8291-5.0439-23.8232
		c1.833,0.1387,3.6655,0.2676,5.4985,0.3838c7.5825,0.5098,15.1636,0.7891,22.7461,0.9287
		c7.583,0.1289,15.1641,0.1289,22.7466-0.1055c4.0791-0.1113,8.1597-0.2783,12.2383-0.5313
		c0.0986,7.1816-0.1733,14.3574-0.8765,21.4746c-0.7407,7.6895-2.0254,15.3027-3.8115,22.7715
		c-1.8193,7.459-4.147,14.7803-7.1162,21.7939c-1.4814,3.5107-3.1055,6.9492-4.916,10.2598
		C197.5986,384.374,196.6475,386,195.6567,387.582 M83.0361,259.4048c3.7744,4.3286,7.895,8.3794,12.3789,12.0327
		c8.9292,7.3086,19.4214,13.0713,30.9141,15.8232c11.481,2.6748,23.7197,2.2773,34.9854-1.0371
		c11.2915-3.2803,21.7178-8.8613,30.9473-15.7412c0.3911-0.292,0.6929-0.6572,0.9165-1.0635
		c0.0791,0.0205,0.1582,0.041,0.2378,0.0576c-4.8389,4.9453-9.9307,9.6221-15.3291,13.8672
		c-5.4966,4.3506-11.3569,8.1924-17.5391,11.3008c-6.1963,3.0547-12.7437,5.3447-19.4736,6.3369
		c-6.7231,0.998-13.5908,0.6445-20.1348-1.1143c-3.2749-0.8691-6.4668-2.0684-9.5396-3.5537
		c-1.8501-0.9023-3.6499-1.918-5.4092-3.0088c-0.3887-0.3945-0.8643-0.6875-1.3916-0.877c-0.6802-0.4463-1.3555-0.9023-2.0205-1.375
		c-5.6157-3.9902-10.666-8.8398-15.1484-14.1797c-2.2461-2.668-4.3389-5.4727-6.29-8.3682
		c-0.9717-1.4473-1.9072-2.9209-2.7876-4.4131c-0.439-0.7441-0.8696-1.5-1.2607-2.2344c-0.355-0.6631-0.7012-1.4458-1.0337-2.2202
		c-2.1304-5.0742-3.562-10.5137-4.0737-15.9629c0.1914,0.3623,0.377,0.7256,0.5752,1.084c0.0396,0.2441,0.1226,0.4883,0.2568,0.7139
		C75.8379,250.5229,79.2798,255.0288,83.0361,259.4048 M72.8735,234.8218c11.0654-13.0601,22.1396-22.583,25.2402-25.1689
		l0.3188,57.4849c-4.2412-3.2822-8.2197-6.937-11.9355-10.856c-2.4463-2.6279-4.8198-5.4053-6.9917-8.2715
		c-2.1758-3.2754-3.9932-6.8594-5.5674-10.5566C73.5693,236.5825,73.2163,235.7036,72.8735,234.8218 M189.3594,290.8945
		c-3.7021,0.1348-7.4019,0.2949-11.1001,0.4941c1.3037-0.9385,2.5923-1.8975,3.8564-2.8848
		c5.2246-4.0557,10.1289-8.4678,14.7935-13.0908c2.4497,4.0547,6.1274,9.6426,10.8193,15.3408
		C201.5977,290.4404,195.4795,290.7119,189.3594,290.8945 M205.4668,295.5771c-0.3306,0.3242-0.6631,0.6436-0.9854,0.9795
		c-0.9731,0.9775-1.9136,1.9883-2.8213,3.0332c-0.334,0.3789-0.6563,0.7734-0.9771,1.165
		c-6.8174-0.1689-13.6357-0.167-20.4536-0.0518c-6.3408,0.1172-12.6797,0.3408-19.02,0.7061c0.73-0.3301,1.4556-0.665,2.1738-1.0137
		c2.9766-1.4736,5.8604-3.1016,8.6606-4.8428c1.9434,0.0713,3.8877,0.127,5.8311,0.1719c3.8569,0.0869,7.71,0.1279,11.5649,0.1377
		C194.7832,295.8486,200.1284,295.9014,205.4668,295.5771 M108.73,301.7676c3.3896,1.6641,6.9453,3.0283,10.6123,4.0303
		c7.3315,2.0225,15.1157,2.4668,22.6211,1.3955c2.1978-0.3096,4.3647-0.7549,6.5024-1.292
		c0.8008,8.4102,2.2686,16.6191,4.2031,24.7949c2.0479,8.5088,4.6646,16.915,8.0732,25.0625
		c3.4126,8.1348,7.6123,16.0342,12.978,23.251c2.4995,3.3633,5.2759,6.5537,8.3164,9.5127
		c-8.2544-1.7715-16.3384-4.292-24.1587-7.5381l-1.9966-0.8164l-1.9688-0.8926c-1.3071-0.5996-2.6392-1.1533-3.9307-1.792
		l-3.876-1.9248c-1.2988-0.6309-2.5459-1.3652-3.8223-2.04c-2.3999-1.292-4.7681-2.6455-7.1074-4.0547l-2.6147-3.6035
		c-0.4858-0.6855-1.0024-1.3438-1.4609-2.043l-1.3364-2.1328c-0.8789-1.4326-1.8188-2.8184-2.6421-4.2793l-2.4185-4.416
		c-3.0703-5.9697-5.8657-12.0928-8.105-18.4434c-2.2891-6.3232-4.2461-12.7695-5.8496-19.3008
		c-0.7876-3.2715-1.5195-6.5527-2.1396-9.8496c-0.2603-1.3545-0.4907-2.708-0.7134-4.0635
		C108.1753,301.4746,108.4492,301.6279,108.73,301.7676 M208.395,300.9922c0.0537-0.0498,0.1138-0.0947,0.1689-0.1445
		c1.042-0.9043,2.0381-1.8584,3.0166-2.8281c0.4438-0.4727,0.8594-0.9756,1.2261-1.5283c1.6519,1.7324,3.3901,3.4287,5.2158,5.043
		C214.8135,301.3018,211.604,301.1182,208.395,300.9922 M208.9688,374.6143c2.6875-7.5068,4.6577-15.2168,6.0894-22.9961
		c1.3989-7.7822,2.2651-15.6377,2.5718-23.499c0.3013-7.2969,0.1602-14.5918-0.355-21.8486c2-0.1377,4-0.3076,5.998-0.5
		c3.8257,2.7871,7.9429,5.1191,12.3008,6.709c-0.0483,0.498-0.0884,0.998-0.1484,1.4941c-0.4307,3.751-1.1367,7.4912-2.0239,11.1895
		c-1.7827,7.4004-4.3857,14.6172-7.5034,21.6074c-3.1191,6.998-6.8608,13.7324-11.0273,20.1982
		c-2.1035,3.3145-4.334,6.5469-6.6636,9.7129C208.4658,375.9922,208.7241,375.3066,208.9688,374.6143 M203.019,273.9453
		c1.0439,1.0225,2.0962,2.0352,3.1782,3.0371c2.9009,2.6729,5.9307,5.2285,9.1362,7.6084c3.2109,2.3691,6.5889,4.5781,10.2681,6.418
		c3.0869,1.543,6.4233,2.833,10.0615,3.4932l0.1191,8.1611c0,0.0605,0.0034,0.1279,0.0103,0.1895l0.0103,0.0938
		c0.0674,0.7227,0.1069,1.7256,0.1152,2.6182c0.002,0.2207-0.0103,0.4434-0.0103,0.6641
		C221.0625,299.9424,209.062,283.5605,203.019,273.9453 M234.8589,204.8794c-0.0361,8.1514,0.0308,16.3008,0.043,24.4497
		l0.207,24.4458c0.0459,8.1499,0.2134,16.2974,0.3149,24.4448l0.1411,9.6162c-2.4541-0.4277-4.9609-1.2441-7.395-2.3145
		c-3.3398-1.4443-6.583-3.3135-9.7188-5.377c-3.1348-2.0723-6.1646-4.3564-9.0933-6.7783c-1.1436-0.9473-2.2734-1.9268-3.3896-2.915
		c1.6499-0.291,3.2778-0.7813,4.8267-1.498c2.8008-1.2813,5.3242-3.332,7.1309-5.9873c1.8174-2.647,2.7998-5.9897,2.5825-9.2769
		c-0.188-3.2988-1.5522-6.4531-3.5571-8.8867c-2.0068-2.4541-4.6196-4.252-7.4155-5.3916
		c-1.8589-0.7754-3.8135-1.2588-5.7847-1.4795v-2.8633c0.0122-0.0967,0.0332-0.1875,0.0332-0.2852l0.189-18.1655l2.0532,0.5166
		c-0.0737,0.2432-0.1274,0.498-0.1494,0.7617c-0.1484,1.9302,1.2935,3.6143,3.2178,3.7622
		c1.7881,0.1382,3.3501-1.1055,3.6807-2.8306l9.1177,2.2886c1.1958,0.2969,2.4375-0.3784,2.8164-1.5684
		c0.3931-1.2393-0.291-2.5596-1.5298-2.9536l-19.1426-6.0796l0.043-4.1021l18.7329,4.4556c1.2813,0.3022,2.6045-0.4336,3.0039-1.71
		c0.415-1.3354-0.3286-2.7573-1.6636-3.1738l-22.4863-7.0107c-0.3135-0.0977-0.6602-0.1519-1.0044-0.1489
		c-1.7983,0.0195-3.2417,1.4922-3.2231,3.291l0.002,0.0796l0.3379,32.5879c0.0015,0.0977,0.0205,0.1885,0.0327,0.2852v5.6953
		c0,1.6416,1.3296,2.9717,2.9692,2.9717c2.1963,0.084,4.3633,0.5273,6.3101,1.4063c1.9482,0.8623,3.6519,2.1553,4.9209,3.6875
		c1.2563,1.5508,2.002,3.3701,2.1055,5.2344c0.0977,1.8711-0.4292,3.7314-1.4849,5.3672
		c-2.1479,3.2905-6.3442,5.3267-10.6504,5.3267c-0.5513,0.0068-1.0562-0.0215-1.644-0.0625l-1.8633-0.1611l-3.752-0.3623
		l-7.4893-0.7373l-0.0381-0.0029c-0.8008-0.0791-1.6006,0.3535-1.9497,1.127c-0.3623,0.7949-0.1348,1.7012,0.4888,2.249
		c-8.2686,5.4287-17.0586,9.9453-26.355,12.7842c-10.2632,3.1631-21.1978,3.835-31.6895,1.6436
		c-7.5693-1.6514-14.8228-4.7197-21.5376-8.7949l-3.752-66.8208c5.0215-4.3296,10.1533-8.5322,15.4053-12.5674
		c10.9414-8.3647,22.3848-16.1294,34.4287-22.6943l9.2104-1.9336c1.7173-0.3687,3.4434-0.6987,5.1675-1.0063
		c3.0215,0.1118,6.022,0.3999,8.9834,0.8003c6.9658,0.9814,13.7358,2.8008,20.1196,5.4775c3.2051,1.3047,6.3042,2.8511,9.293,4.5894
		c1.521,0.8218,2.9624,1.7808,4.4233,2.7104c0.7319,0.4619,1.4146,1.002,2.1289,1.4912c0.7114,0.4961,1.4399,0.9663,2.1187,1.5127
		c5.5439,4.189,10.6475,9,15.5483,14.166l0.0083,0.0107c0.5889,0.623,1.5557,0.7617,2.3101,0.2871
		c0.8545-0.5415,1.1094-1.6738,0.5664-2.5293c-3.9463-6.2407-8.9775-11.8564-14.7671-16.6138
		c-2.8872-2.3882-6.0049-4.5103-9.2642-6.3872c-1.6035-0.981-3.3193-1.7656-4.9937-2.6211c-1.729-0.7427-3.4399-1.5239-5.2178-2.145
		c-3.1831-1.1836-6.4556-2.0859-9.7734-2.748c2.0137-0.001,4.0239,0.0356,6.0303,0.1694
		c5.4502,0.3398,10.8491,1.2705,16.1011,2.7061c5.2485,1.4507,10.3267,3.4741,15.1724,5.9604
		c2.4219,1.2432,4.7886,2.5981,7.0757,4.083c2.312,1.501,4.4839,3.0093,6.2998,4.8101c1.8481,1.7603,3.29,3.7583,4.1362,5.7729
		c0.854,2.0195,1.0264,4.0659,0.6113,6.3047c-0.4409,2.2251-1.48,4.5649-2.7715,6.896c-0.6719,1.2192-1.4126,2.4351-2.1812,3.6689
		c-0.0151-0.3296-0.0259-0.6577-0.0415-0.9883c-0.0459-0.9678-0.8457-1.7451-1.8257-1.75
		C235.6895,203.0474,234.8638,203.8657,234.8589,204.8794 M244.2773,204.7808c2.1035-2.1587,3.9692-4.7964,4.9922-8.04
		c1.0835-3.2095,0.9199-7.1079-0.4785-10.2847c-0.6821-1.5928-1.585-3.022-2.5962-4.2949
		c-1.0059-1.2852-2.1152-2.4189-3.2676-3.4526c-2.293-2.0879-4.7905-3.8027-7.2051-5.3843c-2.4463-1.5972-4.98-3.0586-7.5796-4.4028
		c-5.1987-2.6836-10.6919-4.8037-16.3315-6.3574c-5.6377-1.5767-11.4307-2.5293-17.2515-2.9985
		c-5.8184-0.4658-11.6807-0.3584-17.4526,0.3442c-1.311,0.1636-2.6172,0.3633-3.9155,0.5825
		c5.438-2.1294,10.9863-3.9355,16.626-5.3501c8.7646-2.1133,17.7754-3.252,26.7202-2.7646
		c8.9282,0.5117,17.77,2.5806,25.8521,6.4424c4.0483,1.9082,7.9136,4.2104,11.5762,6.8203
		c3.6309,2.6631,7.0283,5.6489,10.249,8.8315l0.0303,0.0342c0.7207,0.707,1.874,0.7197,2.6045,0.0171
		c0.7451-0.7144,0.7686-1.896,0.0557-2.6396c-3.2627-3.4033-6.7354-6.6245-10.4873-9.5293
		c-3.7891-2.855-7.8252-5.4063-12.0835-7.5513c-8.5371-4.2808-17.9834-6.6665-27.4814-7.376
		c-9.5239-0.689-19.0654,0.3525-28.2876,2.4053c-9.2124,2.1401-18.1597,5.2354-26.7373,9.063
		c-17.1655,7.6899-33.0029,17.8423-47.9199,29.0313c-7.4468,5.624-14.6646,11.5386-21.6514,17.7134
		c-1.7788,1.5908-3.541,3.1929-5.29,4.8091l-0.4302,0.0547c6.1494-8.6011,13.2827-16.5879,21.0547-23.8589
		c10.4336-9.7388,22.0898-18.1895,34.6597-24.9663c12.6416-6.7695,26.0483-12.145,39.9097-15.6997
		c13.8442-3.5259,28.2085-5.2695,42.3457-4.1436c7.0503,0.5835,14.0303,1.9033,20.6416,4.2026
		c6.5952,2.3008,12.8208,5.6113,18.0913,10.0547c5.2646,4.4248,9.5371,10.0137,12.2783,16.3174
		c2.7666,6.2905,3.9521,13.2432,3.7695,20.2075c-0.1758,6.9771-1.6719,13.9502-4.0381,20.6309
		c-2.3701,6.688-5.6016,13.1021-9.4053,19.1719c-6.8867,10.9644-15.5713,20.811-25.2627,29.5322
		c-0.0811-2.7642-0.1548-5.5239-0.2549-8.2866l-0.8164-24.4336c-0.2705-6.6743-0.5151-13.3506-0.7979-20.0269
		C240.7207,207.9775,242.5845,206.5117,244.2773,204.7808 M59.8335,251.6284c1.0542-1.1777,2.2549-2.709,3.6328-4.6729
		c0.6719-0.958,1.354-1.9014,2.043-2.8369c0.6807,15.3311,2.8628,49.1606,9.397,72.6333
		C66.2603,296.5859,60.9912,274.6416,59.8335,251.6284 M72.8389,266.0625c0.1772,0.3174,0.355,0.6299,0.5376,0.9424
		c0.9351,1.6084,1.917,3.1777,2.937,4.7207c2.0479,3.0791,4.2422,6.0566,6.6094,8.9023
		c4.7197,5.6973,10.082,10.9268,16.1606,15.3105c0.1982,0.1406,0.4014,0.2715,0.5981,0.4102c0.0068,0.0488,0,0.0928,0.0083,0.1406
		c0.2876,1.8369,0.6045,3.5146,0.958,5.2432c0.3428,1.7148,0.7197,3.416,1.1191,5.1123c0.7891,3.3945,1.688,6.7529,2.644,10.0947
		c1.9399,6.6768,4.2397,13.2432,6.877,19.6719c2.5889,6.4492,5.75,12.6748,9.188,18.7207l2.7012,4.4688
		c0.7109,1.1475,1.4897,2.249,2.2598,3.3584c-8.9141-6.1006-17.3613-12.9463-25.3901-20.2705
		c-4.3032-3.9512-8.4961-8.0332-12.5454-12.2578c-0.7324-0.751-1.4541-1.5205-2.1777-2.2881
		C78.2612,314.7285,74.6509,287.46,72.8389,266.0625 M86.9932,340.2734c2.5132,2.7842,5.0747,5.5293,7.7373,8.1748
		c8.5356,8.5303,17.8062,16.3711,27.7866,23.29c9.9756,6.9102,20.6899,12.8945,32.0791,17.376
		c5.6626,2.3125,11.5518,4.0859,17.4966,5.5645l4.4922,0.9824c1.502,0.3027,3.0244,0.5166,4.5337,0.7783
		c0.8306,0.1582,1.6621,0.2852,2.501,0.3955l-0.0103,0.0039c0,0,0.1553,0.0137,0.4224,0.0449
		c2.0664,0.2578,4.1514,0.4199,6.2163,0.6436c0.1064,0.0137,0.2119,0.0078,0.3188,0.0078c1.0693,0.0957,2.1548,0.1816,3.1865,0.2578
		c-1.2715,1.9912-2.52,3.9971-3.707,6.04c-2.9829,5.1738-5.7031,10.4932-8.1733,15.9189
		C142.1387,404.4766,108.7783,376.2568,86.9932,340.2734 M260.2451,432.085c2.1191-2.6865,4.3145-5.3086,6.7188-7.7432
		c1.8711-2.1201,3.9893-3.9971,6.0146-5.957c1.0029-0.9893,2.1406-1.8398,3.2012-2.7637c1.0947-0.8877,2.1191-1.8633,3.2695-2.6797
		c2.2598-1.6855,4.4502-3.459,6.8418-4.9551c1.1777-0.7715,2.332-1.5771,3.5283-2.3184l3.6406-2.1348
		c0.6104-0.3516,1.2061-0.7246,1.8252-1.0586l1.8818-0.9541l3.7656-1.9121l3.8623-1.6953c1.2842-0.5713,2.5703-1.1475,3.9063-1.5986
		c10.5254-3.9473,21.6182-6.5146,32.8936-7.1377c2.8184-0.1074,5.6406-0.3135,8.4648-0.2412
		c2.8252,0.0342,5.6475,0.1934,8.4648,0.4238c3.4111,0.2793,6.8076,0.7549,10.1836,1.3574
		C338.625,414.7666,301.1289,429.9082,260.2451,432.085 M373.0527,387.1367c-10.3145-2.6699-21.0498-3.8232-31.7295-3.3271
		c-1.4814-0.0098-2.9531,0.1553-4.4307,0.2754l-4.4268,0.376l-4.3926,0.6719c-1.4678,0.2266-2.9355,0.4336-4.375,0.7881
		l-4.3447,0.958c-0.7305,0.1416-1.4434,0.3408-2.1533,0.5547l-2.1357,0.6172c-1.4199,0.4336-2.8633,0.7842-4.2588,1.2949
		l-4.1855,1.5117c-1.4053,0.4688-2.7656,1.0693-4.123,1.665l-4.083,1.7734l-3.958,2.0371l-1.9775,1.0156
		c-0.6484,0.3584-1.2793,0.751-1.9199,1.127l-3.8232,2.2734c-1.2607,0.7822-2.457,1.6641-3.6865,2.4902
		c-2.4873,1.6162-4.7686,3.5186-7.1133,5.3271c-8.2725,6.8203-15.5,14.8691-21.4189,23.7393
		c-1.502,0.0352-3.0078,0.0586-4.5186,0.0586c-10.0615,0-19.9414-0.792-29.5879-2.3037l0.9492-1.6924
		c0.5479-0.9814,1.0767-1.9775,1.6431-2.9453l1.8345-2.8359c1.2334-1.8799,2.4165-3.792,3.686-5.6426l4.0381-5.3984
		c0.6855-0.8926,1.2988-1.8369,2.041-2.6797l2.186-2.5635l2.1821-2.5635c0.7407-0.8447,1.418-1.7393,2.231-2.5186
		c3.1577-3.1895,6.1826-6.5107,9.624-9.3984l2.5059-2.2422l1.251-1.123c0.4268-0.3613,0.8789-0.6963,1.3164-1.0469l5.2813-4.1592
		c0.4443-0.3447,0.875-0.6992,1.3262-1.0332l1.3887-0.9473l2.7764-1.8916c1.8672-1.2363,3.6553-2.5977,5.6299-3.665l5.7979-3.3975
		c0.9512-0.5957,1.9775-1.0508,2.9756-1.5576l3.0088-1.4883c2.0117-0.9912,3.9893-2.0391,6.0898-2.8281l6.1982-2.5898
		c2.084-0.8164,4.2344-1.458,6.3467-2.1982l3.1797-1.0752c1.0537-0.3799,2.1592-0.5898,3.2373-0.8926l6.5049-1.6953
		c2.1768-0.5127,4.3955-0.8438,6.5938-1.2744c4.3857-0.9648,8.8711-1.2441,13.3193-1.7949
		c1.1094-0.1621,2.2314-0.1553,3.3516-0.2129l3.3594-0.1523l3.3623-0.1475l1.6807-0.0693l1.6816,0.0068
		c16.3369,0.0723,32.6602,2.9219,48.1221,8.3652C389.8369,371.5547,381.7793,379.7266,373.0527,387.1367 M418.9932,329.6143
		c-10.4189-4.0957-21.1807-7.2246-32.1123-9.3174c-0.5029-0.0928-0.999,0.2158-1.126,0.7148
		c-0.1309,0.5205,0.1816,1.0498,0.7021,1.1816c10.5557,2.7051,20.8291,6.3838,30.6582,10.9434
		c-5.0166,9.1553-10.7598,17.8584-17.1563,26.0264c-7.5078-3.0146-15.293-5.3574-23.2129-7.0762
		c-9.0957-1.9395-18.3838-2.9736-27.6885-3.1699l-1.7471-0.0303l-1.7432,0.0371l-3.4893,0.0977l-3.4902,0.0996
		c-1.165,0.0371-2.332,0.041-3.4873,0.1963c-4.627,0.5439-9.2881,0.8203-13.8516,1.791c-2.292,0.4336-4.5996,0.7686-6.8701,1.2881
		l-6.7773,1.7266c-1.1221,0.3105-2.2734,0.5273-3.3721,0.9131l-3.3213,1.0986c-2.2012,0.7578-4.4434,1.4189-6.6172,2.2568
		c-17.3672,6.7627-33.5908,16.6016-47.2002,29.3418c-3.5122,3.0664-6.5972,6.5625-9.8032,9.9326
		c-0.8267,0.8223-1.5156,1.7666-2.2666,2.6523l-2.2134,2.6982l-2.2124,2.6963c-0.7524,0.8857-1.3711,1.875-2.062,2.8086
		l-4.0166,5.7012c-1.2559,1.9502-2.4233,3.9658-3.6377,5.9395l-1.8003,2.9795c-0.5581,1.0205-1.0713,2.0615-1.6069,3.0908
		l-1.561,3.0693c-10.3198-1.874-20.3486-4.585-30.0205-8.0537c2.5181-5.1162,5.2642-10.123,8.2461-14.9766
		c3.6616-6.0459,7.7134-11.8545,12.0747-17.4082c8.7041-11.1309,18.7773-21.1563,29.8159-29.9238
		c11.0225-8.7891,23.0513-16.3057,35.7983-22.3184c3.1797-1.5225,6.4248-2.9004,9.6875-4.2305
		c0.8164-0.3457,1.625-0.6289,2.4395-0.9434l2.373-0.8994c1.623-0.5029,3.3213-0.9678,4.9961-1.3799
		c0.8506-0.208,1.6494-0.3838,2.5449-0.5781c0.9551-0.207,1.833-0.4365,2.7285-0.665c1.7822-0.4668,3.5215-0.9609,5.2646-1.4766
		c1.7402-0.5137,3.4727-1.0479,5.209-1.6094c1.7051-0.5615,3.3418-1.0938,5.1777-1.8496c0.0029-0.0029,0.0029-0.0029,0.0068-0.0029
		c0.0176-0.0068,0.0313-0.0146,0.0449-0.0176c0.0342-0.0137,0.0654-0.0254,0.0967-0.04l0.0029-0.002
		c0.0107-0.002,0.0146-0.0078,0.0244-0.0127c2.2021-0.8408,4.2168-2.0537,5.9844-3.499c1.8125-1.4922,3.3555-3.2197,4.6992-5.0518
		c2.6621-3.6885,4.4922-7.8086,5.6699-12.0518c2.3223-8.502,2.1846-17.5078-0.127-25.9033
		c-1.1611-4.1992-2.877-8.2402-5.0957-11.9834c-1.1016-1.877-2.3389-3.6685-3.6826-5.3735
		c-0.668-0.8545-1.3604-1.6885-2.0908-2.4902c-0.7031-0.8057-1.5674-1.6602-2.418-2.4102
		c-3.5049-3.0254-7.8037-4.918-12.1475-5.8203c-2.1748-0.4648-4.3721-0.7012-6.5635-0.7646
		c-1.0996-0.0313-2.1943-0.0137-3.29,0.0479c-1.0654,0.0674-2.0498,0.1523-3.2002,0.3369
		c-1.0615,0.0967-2.1465,0.0996-2.8633-0.0615c-0.0938-0.0166-0.1729-0.0391-0.2412-0.0625
		c0.0586-0.209,0.1826-0.5107,0.3447-0.8086c0.207-0.4092,0.499-0.8506,0.8027-1.2871c0.6328-0.876,1.3779-1.751,2.167-2.6045
		c0.7744-0.8135,1.7119-1.8057,2.4287-2.4375c0.8164-0.7168,1.7256-1.3838,2.6738-1.9883c1.9004-1.2061,3.9717-2.1797,6.1348-2.8711
		c4.3271-1.417,9.0088-1.6836,13.5908-1.0283c2.2949,0.3262,4.5693,0.874,6.8018,1.5977c2.1494,0.7197,4.2578,1.6035,6.3242,2.5879
		c0.083,0.0586,0.1211,0.084,0.1904,0.1299l0.2646,0.1592l0.417,0.2256l0.751,0.3896l1.4512,0.7627
		c0.957,0.5117,1.9004,1.043,2.8281,1.5947c1.8594,1.1113,3.665,2.3027,5.4043,3.5859c3.4805,2.5645,6.6982,5.4805,9.5439,8.7197
		c2.8379,3.2441,5.3057,6.8149,7.2754,10.647c1.9775,3.8281,3.4629,7.9082,4.4482,12.1162l0.0654,0.2207
		c-0.0215-0.0615,0.0313,0.1035,0.0479,0.1807l0.0693,0.3174c0.041,0.2236,0.082,0.4561,0.1104,0.6973
		c0.0645,0.4824,0.1162,0.9785,0.1445,1.4834c0.0693,1.0068,0.0859,2.0371,0.0752,3.0713v0.0029l0.0039,0.083
		c0,0.041,0,0.0811,0.0029,0.1211c0.083,0.8223,0.8096,1.4238,1.6338,1.3428c1.4844-0.1406,3.0352-0.1758,4.5127-0.1367
		c1.4229,0.0225,2.9863,0.3076,4.5234,0.4775c3.0732,0.3936,6.1357,0.8672,9.1914,1.3838
		c6.1084,1.0449,12.165,2.3477,18.1553,3.9121c10.7637,2.8047,21.3018,6.4385,31.4746,10.8799
		C427.6885,311.1484,423.6924,320.5918,418.9932,329.6143 M296.9609,310.1016v-4.1797h24.249
		c-0.7021,1.5234-1.5225,2.9736-2.4561,4.3271c-0.2334-0.0928-0.4893-0.1475-0.7539-0.1475H296.9609z M315.3086,314.2246
		c-1.5469,1.4023-3.2656,2.5391-5.123,3.2607l-0.0234,0.0088c-0.0029,0.002-0.0068,0.0059-0.0107,0.0078
		c-0.0068,0.0029-0.0137,0.0029-0.0205,0.0059l-0.0859,0.0352c-1.4092,0.5889-3.1387,1.168-4.7881,1.7061
		c-1.6758,0.543-3.3662,1.0635-5.0615,1.5635c-1.0752,0.3164-2.1572,0.623-3.2344,0.9229v-7.5107H315.3086z M296.9609,301.7979
		v-4.5576h27.0088c-0.2266,1.1719-0.4893,2.3369-0.8203,3.4795c-0.1064,0.3623-0.2207,0.7207-0.3369,1.0781H296.9609z
		 M296.9609,293.1172v-8.71h26.3438c0.4414,0,0.8447-0.1387,1.1787-0.3711c0.3447,3.0186,0.3682,6.0693,0.082,9.0811H296.9609z
		 M323.3047,280.2871h-26.4238c-0.0791-0.291-0.2168-0.5664-0.4131-0.7988l-8.1484-9.5225l31.6543-0.9609
		c1.4326,2.8145,2.5771,5.7754,3.3691,8.8291c0.2207,0.8447,0.4102,1.6992,0.5791,2.5566
		C323.7246,280.3291,323.5225,280.2871,323.3047,280.2871 M292.8398,281.5889v41.2061c-0.0723,0.0156-0.1514,0.0361-0.2207,0.0518
		c-0.8545,0.1875-1.8057,0.3945-2.6895,0.6133c-1.8096,0.4424-3.5674,0.9219-5.3652,1.4834l-2.6553,0.9932
		c-0.8584,0.333-1.7402,0.6426-2.5742,0.9902c-0.2686,0.1104-0.5381,0.2207-0.8027,0.3291v-42.3555l7.0322-11.8164
		L292.8398,281.5889z M330.2949,235.5835c-2.2666-1.1309-4.5986-2.1533-7.0107-3.0005c-2.4209-0.8232-4.9189-1.4692-7.4756-1.8687
		c-5.0986-0.8057-10.4697-0.5986-15.5029,0.9678c-2.5186,0.7656-4.9404,1.8584-7.1963,3.2451
		c-1.1309,0.6982-2.2158,1.4668-3.2568,2.3516c-1.1289,0.9844-1.874,1.7822-2.8037,2.7256
		c-0.8887,0.9346-1.7578,1.9131-2.5771,3.0146c-0.4033,0.5615-0.8027,1.1357-1.1641,1.8135
		c-0.3584,0.6768-0.7168,1.4092-0.8994,2.4395c-0.0791,0.5186-0.1172,1.1123,0.0313,1.79c0.1445,0.665,0.4883,1.3701,0.9678,1.8779
		c0.9609,1.0156,1.9883,1.334,2.8008,1.542c1.667,0.374,3.0459,0.3105,4.4063,0.2227l0.2207-0.0303
		c7.3623-0.9443,15.7578,0.4775,21.1465,5.3389c0.6777,0.625,1.2773,1.2217,1.918,1.9736c0.6455,0.7305,1.2549,1.4897,1.8438,2.2622
		c0.6689,0.8779,1.2988,1.7803,1.8975,2.7021l-31.4941,0.9541c-0.7031,0.0225-1.3477,0.4014-1.709,1.0049l-9.7363,16.3711
		c-0.1924,0.3184-0.292,0.6816-0.292,1.0547v44.6318c-1.7129,0.7344-3.415,1.4941-5.0986,2.2939
		c-13.2227,6.125-25.6201,13.9756-36.9702,23.0947c-2.2529,1.8467-4.4512,3.7627-6.6162,5.7129
		c1.9966-3.5352,3.853-7.1563,5.5518-10.8564c3.3711-7.2441,6.0269-14.8447,7.917-22.6572
		c0.9316-3.9121,1.6743-7.8779,2.1323-11.9004c0.2397-2.0098,0.3892-4.0371,0.4717-6.0762c0.0449-1.0205,0.0571-2.0469,0.0469-3.084
		c-0.019-0.9971-0.041-1.9082-0.145-3.0322l-0.2891-10.6064c0.0088-0.0654,0.0278-0.1309,0.0308-0.2002
		c0.0122-0.2617-0.0117-0.5166-0.0566-0.7666l-0.3481-12.7861c-0.1011-3.418-0.189-6.8389-0.2808-10.2559
		c11.209-9.4321,21.3311-20.3003,29.3438-32.73c4.041-6.2876,7.5244-12.9854,10.1289-20.0742
		c2.5977-7.0791,4.3164-14.5771,4.6025-22.2515c0.293-7.6558-0.9268-15.4995-3.9824-22.6689
		c-3.0146-7.1709-7.751-13.606-13.6182-18.6841c-5.8604-5.1016-12.7266-8.8706-19.9009-11.499
		c-4.3809-1.5996-8.877-2.7886-13.4238-3.6455c-0.0747-0.251-0.1724-0.4971-0.3071-0.7339
		c-4.3184-7.4766-9.1914-14.7075-14.9116-21.3452c-5.6982-6.6372-12.2114-12.7578-19.7324-17.6211
		c-7.4893-4.8721-15.9712-8.481-24.8784-10.1992c-8.8989-1.7407-18.1196-1.6646-26.9238-0.0171
		c-3.5,0.6396-6.9399,1.5029-10.3145,2.5386c31.6587-23.4712,70.8159-37.3721,113.1611-37.3721
		c7.4775,0,14.8535,0.4463,22.1094,1.2896c-1.627,3.73-2.7109,7.7358-3.2178,11.8359c-0.1895,1.5713-0.2793,3.1572-0.2891,4.7441
		c-0.0381,1.5894,0.0693,3.1777,0.251,4.7612l0.249,2.3833c0.1123,0.79,0.3164,1.5659,0.4717,2.3506l0.5059,2.3555
		c0.2168,0.771,0.4824,1.5269,0.7305,2.2925c3.9375,12.2598,13.5117,22.707,25.5664,27.6421
		c12.0166,5.02,26.1445,4.4985,37.5615-1.3755c1.4541-0.6699,2.791-1.5669,4.1582-2.3833c0.6611-0.4443,1.3018-0.9189,1.9531-1.3779
		c0.6611-0.4443,1.2754-0.9517,1.875-1.4741c2.4697-1.9971,4.6475-4.3164,6.6064-6.77l1.4063-1.8887l1.2646-1.9775
		c0.4375-0.646,0.8096-1.3354,1.1748-2.0234c0.3613-0.6895,0.7607-1.356,1.0645-2.0747c0.9473-2,1.6943-4.0723,2.2979-6.1753
		c30.583,20.4966,54.9219,49.6113,69.5146,83.8438c-3.4473-2.4683-6.8926-4.9497-10.376-7.3687l-5.6709-3.9722l-2.8496-1.9658
		l-1.4287-0.9795c-0.4932-0.333-0.8896-0.623-1.5645-1.0488c-2.3496-1.5015-5.2295-1.9443-7.8477-1.7236
		c-1.3232,0.1006-2.6045,0.374-3.8379,0.7471c-0.6201,0.1821-1.2197,0.4146-1.8193,0.6626
		c-0.6133,0.2637-1.1436,0.4878-1.8223,0.8833l-0.0654,0.0352c-0.0654,0.0405-0.1309,0.0845-0.1963,0.1328
		c-4.4063,3.3145-8.7988,6.6528-13.168,10.02c-4.375,3.3584-8.6943,6.7915-13.0283,10.2026
		c-2.1777,1.6968-4.3105,3.4487-6.46,5.1768c-2.1494,1.7329-4.3027,3.459-6.4248,5.2285c-4.2617,3.5088-8.5,7.0557-12.6572,10.7046
		c4.7021-2.9126,9.333-5.9297,13.9316-8.9829c2.3115-1.5137,4.5918-3.0679,6.877-4.6162c2.2803-1.5542,4.5781-3.0811,6.835-4.6675
		c4.5303-3.1519,9.0742-6.2832,13.5635-9.4863c4.4336-3.1504,8.8467-6.3311,13.2422-9.5342
		c0.3311-0.1504,0.8096-0.373,1.2334-0.5347c0.4688-0.1885,0.9541-0.3433,1.4297-0.5059c0.9648-0.3086,1.9434-0.5391,2.9082-0.6963
		c1.9365-0.314,3.8242-0.2261,5.6152,0.3354c0.3652,0.0684,0.9063,0.4551,1.3848,0.7383l1.4717,0.9009l2.9453,1.791l2.7285,1.6328
		c-0.8369,1.1343-1.6123,2.2954-2.3701,3.4653c-1.0127,1.5942-1.9814,3.2085-2.8945,4.8467
		c-0.9053,1.6421-1.8076,3.2866-2.6143,4.9741c-0.3857,0.7944-0.7549,1.5962-1.1055,2.4038
		c-0.125-0.1113-0.2412-0.2251-0.3652-0.3384c-0.9004-0.8398-1.8916-1.5977-2.8945-2.3423
		c-1.002-0.7476-2.0059-1.4922-2.9141-2.3252c-0.9063-0.8359-1.7471-1.728-2.4736-2.73c-0.1484-0.2065-0.417-0.3032-0.6719-0.2207
		l-0.1592,0.0493c-1.4199,0.4556-2.9346,0.6934-4.3955,1.0532c-0.7344,0.1753-1.4434,0.396-2.1328,0.6704
		c-0.2139,0.0825-0.4199,0.1821-0.627,0.2754c-0.4717-0.6758-0.957-1.3442-1.4814-1.9902
		c-0.9092-1.0864-1.8535-2.1567-3.0176-3.1025c-0.0449-0.0347-0.1064-0.0547-0.1689-0.0474
		c-0.1211,0.0142-0.21,0.1245-0.1934,0.2485c0.1797,1.4902,0.5859,2.856,1.0234,4.2051c0.4619,1.3369,1.0029,2.6279,1.6123,3.8813
		c0.3965,0.7979,1.3467,1.1763,2.1846,0.8354l0.1514-0.0601c0.6855-0.2788,1.3779-0.5464,2.0361-0.8892
		c0.6582-0.3354,1.2949-0.7231,1.9121-1.1567c1.1055-0.7695,2.1709-1.6265,3.2969-2.3477c0.751,0.7031,1.4395,1.4604,2.0703,2.2734
		c0.751,0.9795,1.4053,2.042,2.0635,3.106c0.6543,1.0654,1.3232,2.1167,2.0811,3.0864c0.7578,0.9746,1.5059,1.9517,2.2842,2.9038
		c0.1689,0.2046,0.3857,0.3882,0.6338,0.5166c0.9961,0.5176,2.2188,0.1294,2.7354-0.8638l0.1074-0.2021
		c0.8613-1.6626,1.6738-3.3477,2.4043-5.0684c0.7471-1.7148,1.3984-3.4751,2.043-5.2354c0.6406-1.7642,1.2266-3.5532,1.7676-5.3628
		c0.3721-1.2988,0.7305-2.6055,1.0303-3.937l2.2314,1.335c3.9385,2.3804,7.9209,4.6855,11.8936,7.0176
		c0.3535,0.2046,0.709,0.4053,1.0635,0.6099c9.0576,22.165,14.0635,46.3999,14.0635,71.7832c0,19.2925-2.8936,37.9194-8.2549,55.481
		c-10.3418-4.2793-21.0107-7.7363-31.8701-10.3613c-6.1123-1.4814-12.2861-2.6953-18.4971-3.6465
		c-3.1074-0.4697-6.2178-0.8926-9.3389-1.2402c-1.5645-0.1475-3.0879-0.3857-4.7861-0.4512
		c-1.0781-0.0361-2.1318-0.0176-3.1865,0.0137c-0.0029-0.5693-0.0176-1.1387-0.0479-1.7158
		c-0.0283-0.5576-0.0762-1.1191-0.1416-1.6943c-0.0342-0.2861-0.0791-0.5791-0.1279-0.876l-0.0957-0.4648
		c-0.0381-0.1475-0.0557-0.2451-0.1211-0.4443c-0.9785-4.4404-2.4805-8.7783-4.5195-12.8604
		c-2.0371-4.1108-4.6064-7.9546-7.5801-11.4448c-2.9727-3.4883-6.3389-6.6289-9.9795-9.3945
		c-1.8193-1.3848-3.7109-2.6719-5.6572-3.873c-0.9717-0.5967-1.957-1.1709-2.9561-1.7236l-1.4883-0.8125l-0.7236-0.3877
		l-0.3164-0.1758l-0.0352-0.0156L330.2949,235.5835z"/>
	<path class="st0" d="M83.686,405.2344c-12.3525-13.1709-23.1997-27.6914-32.2754-43.209
		c-9.0493-15.541-16.1426-32.1514-21.3516-49.2686c-5.25-17.1182-8.2695-34.8535-9.3208-52.6382l-0.3633-6.6689l-0.0396-6.6797
		c-0.0796-4.4482,0.0327-8.8965,0.2876-13.335c0.4907-8.8784,1.4932-17.7178,3.0044-26.4604l0.0015-0.0181
		c0.1289-0.7563,0.8491-1.2622,1.6035-1.1313c0.7427,0.1284,1.2456,0.8262,1.1367,1.5693
		c-1.2725,8.6699-2.043,17.4116-2.3096,26.1655c-0.1431,4.376-0.1431,8.7578,0.0449,13.1328l0.2031,6.5625l0.522,6.5439
		c1.4639,17.436,4.854,34.7163,10.3955,51.2944c5.502,16.5801,12.8071,32.5703,21.9609,47.4316
		c9.1831,14.8418,20.0317,28.6318,32.2637,41.0488l0.0601,0.0586c1.5654,1.5918,1.5469,4.1475-0.043,5.7148
		c-1.5884,1.5645-4.146,1.5469-5.7124-0.0449C83.7339,405.2861,83.7031,405.252,83.686,405.2344"/>
	<path class="st0" d="M132.1465,414.8604c-4.8633-3.6758-10.0601-5.1816-15.0361-4.3555
		c-5.4692,0.9063-10.625,4.5205-15.3257,10.7354l-5.4863,7.2588c-8.9692,11.8613-8.1909,23.1445,2.1323,30.9512
		c2.937,2.2188,7.2725,4.5986,12.3613,4.5986c5.3911,0,11.627-2.6689,17.9434-11.0244l5.4868-7.2549
		c4.7041-6.2217,6.7832-12.1582,6.1841-17.6494C139.8511,423.0498,137.0728,418.5879,132.1465,414.8604 M127.0391,440.3369
		l-5.4849,7.2588c-3.2417,4.2852-6.4712,6.8281-9.6011,7.5518c-2.8027,0.6475-5.5898-0.1064-8.5166-2.3193
		c-2.9521-2.2324-4.458-4.7197-4.6011-7.6025c-0.1621-3.2041,1.4043-7.0078,4.646-11.2969l5.4844-7.2559
		c3.2368-4.2783,6.4751-6.8145,9.624-7.5303c0.6426-0.1484,1.2817-0.2207,1.9209-0.2207c2.1787,0,4.3633,0.8477,6.6279,2.5596
		C131.0059,424.4033,135.2021,429.5439,127.0391,440.3369"/>
	<path class="st0" d="M202.4316,449.8691c-2.3687-1.1982-7.4775-3.3145-11.5977-4.6436
		c-14.249-4.5928-19.5322,1.5537-21.4565,7.5166c-2.0308,6.2979,0.7153,11.248,5.4604,16.7471l5.2295,6.0527
		c4.8218,5.6396,5.7847,7.6797,4.9131,10.3838c-0.7285,2.2607-1.7607,3.624-3.2417,4.2891
		c-1.7969,0.8066-4.4634,0.6514-7.9287-0.4688c-3.1816-1.0264-7.9292-2.708-10.8423-3.9336l-0.3047-0.1035
		c-1.3574-0.4414-2.6475,0.2002-3.0679,1.5156l-0.8662,2.6865c-0.5654,1.7471,0.3838,2.5293,1.5122,3.1289
		c2.9575,1.498,6.3389,3.0977,11.021,4.6064c3.1162,1.0059,5.9668,1.5059,8.5386,1.5059c2.6631,0,5.0249-0.5391,7.0679-1.6162
		c3.1934-1.6846,5.5737-4.7207,6.8828-8.7783c1.9053-5.9082,0.1777-10.873-6.3735-18.3076l-4.9795-5.6738
		c-4.2563-4.9092-5.2124-6.9004-4.4492-9.2676c0.8354-2.5908,2.0723-3.1973,3.0591-3.4346c1.564-0.3828,3.8794-0.0449,7.2759,1.0508
		c3.8706,1.2471,8.4805,2.9561,11.4072,4.1201l0.1426,0.0488c1.3506,0.4365,2.646-0.2041,3.0718-1.5205l0.9277-2.8857
		C204.2183,451.7021,203.7119,450.583,202.4316,449.8691"/>
	<path class="st0" d="M260.7246,460.3701c-1.5918-5.374-5.9668-6.125-8.4336-6.0703c-4.229,0.0693-7.2554,2.4043-8.3013,6.4082
		l-12.2813,46.0303c-0.1362,0.3652-0.1294,0.7158-0.1274,0.916c0.0103,0.6553,0.2769,1.2607,0.751,1.6982
		c0.4512,0.4199,1.0542,0.6475,1.7002,0.6475c0.0151,0,0.0308,0,0.0449,0l4.1582-0.0654c1.1348-0.0166,2.1909-0.8984,2.4521-2.0186
		l4.0088-15.3623l16.3525-0.2646l4.5615,15.1924c0.3125,1.1855,1.2813,1.9746,2.4082,1.9746c0.0166,0,0.0303,0,0.041-0.0039
		l4.1611-0.0654c1.4229-0.0205,2.4395-1.0439,2.4189-2.4385c-0.0039-0.1963-0.0107-0.5449-0.1553-0.8965L260.7246,460.3701z
		 M258.8779,484.2334l-12.2749,0.2002l5.6294-21.7031c0.0693-0.2734,0.1445-0.3486,0.1553-0.3691
		c0.0205,0.0205,0.0957,0.127,0.165,0.3652L258.8779,484.2334z"/>
	<path class="st0" d="M349.1123,471.7529c-1.7051-4.6338-5.3193-7.7588-9.7607-8.6094c2.7471-3.501,3.3877-7.8965,1.7305-12.3994
		l-0.3896-1.0566c-1.8711-5.0898-5.3945-8.0596-10.4697-8.8311c-4.0898-0.6201-9.0781,0.1797-15.2344,2.4434
		c-4.5947,1.6914-8.5088,3.459-10.4355,4.4473c-1.9561,0.9365-2.6279,2.6875-1.8535,4.7959l16.2129,44.0703
		c0.6445,1.7529,1.7021,2.5967,3.2656,2.5967c0.3838,0,0.7998-0.0518,1.2441-0.1514c2.6396-0.5234,6.6152-1.7393,11.1973-3.4248
		c13.6045-5.0059,18.6172-12.6602,14.9063-22.751L349.1123,471.7529z M326.6123,463.6631l-9.0059,3.3145l-5.1846-14.0898
		l0.3516-0.1455c1.543-0.6445,3.2969-1.3711,4.9609-1.9834c8.8818-3.2666,12.833-2.7227,14.5723,2.0107l0.3896,1.0586
		C333.7539,456.7002,334.2744,460.8457,326.6123,463.6631 M329.2617,470.8604c3.2627-1.2021,5.9189-1.333,7.8926-0.3965
		c1.5781,0.751,2.7803,2.2227,3.5732,4.375l0.4131,1.127c2.0771,5.6504-0.4316,8.9609-9.2676,12.21
		c-1.3916,0.5127-2.8564,0.9639-4.2754,1.4053c-0.5059,0.1582-1.0098,0.3135-1.5059,0.4688l-5.8389-15.876L329.2617,470.8604z"/>
	<path class="st0" d="M424.3779,437.2422c-0.124-0.1543-0.3447-0.4229-0.6826-0.6123l-39.1914-27.2031
		c-4.5957-3.2207-8.4785-1.0752-10.3838,0.4902c-3.2695,2.6836-4.1855,6.3965-2.5146,10.1836l19.0234,43.6875
		c0.1211,0.3672,0.3447,0.6406,0.4727,0.792c0.417,0.5098,0.999,0.8164,1.6436,0.8652c0.0615,0.002,0.1201,0.0059,0.1787,0.0059
		c0.5684,0,1.127-0.2021,1.5918-0.5859l3.2139-2.6387c0.8789-0.7197,1.1582-2.0693,0.665-3.1074l-6.4209-14.5244l12.6396-10.3799
		l13.0264,9.0605c0.9912,0.7363,2.2559,0.7471,3.1445,0.0176l3.2148-2.6426C425.1006,439.748,425.2598,438.3174,424.3779,437.2422
		 M397.9023,429.2607l-9.4883,7.7891l-9.0947-20.4912c-0.0967-0.2168-0.1074-0.3408-0.1104-0.3896
		c0.0313,0.0039,0.1582,0.042,0.3584,0.1826L397.9023,429.2607z"/>
	<path class="st0" d="M46.2236,180.9678c0.0381,0.5552-0.0913,2.0249-0.5498,3.7173c-0.9937,3.6714-3.9478,6.6069-9.9287,4.9858
		l-3.1675-0.8589c-5.9839-1.6221-7.0264-5.6406-6.0308-9.313c0.458-1.6924,1.0903-3.0254,1.4019-3.4834
		c0.1929-0.313,0.3467-0.478,0.6963-0.3838l2.439,0.6621c0.3037,0.0806,0.4639,0.2808,0.3789,0.5938
		c-0.0068,0.0254-0.0117,0.0503-0.0205,0.0728c-0.3237,0.8999-0.8096,2.1938-1.168,3.5225
		c-0.4531,1.6675,0.0928,3.2417,3.4346,4.1489l3.168,0.8589c3.3438,0.9053,4.6079-0.1777,5.0591-1.8447
		c0.3604-1.3306,0.5947-2.6938,0.7686-3.6323c0.0049-0.0225,0.0117-0.0474,0.019-0.0718c0.084-0.314,0.3237-0.4043,0.6265-0.3228
		l2.4395,0.6611C46.1392,180.3755,46.2134,180.6035,46.2236,180.9678"/>
	<path class="st0" d="M50.2075,170.4629c-1.3916,3.8877-4.6782,6.1953-10.3657,4.1587l-2.9199-1.0435
		c-5.688-2.0352-6.7661-5.9028-5.376-9.7925c1.3896-3.8867,4.6768-6.1934,10.3662-4.1587l2.918,1.0444
		C50.5195,162.7075,51.5981,166.5732,50.2075,170.4629 M40.4614,163.6807c-2.9419-1.0532-4.5283-0.5581-5.2378,1.4214
		c-0.7065,1.981,0.2153,3.3467,3.1572,4.3999l2.918,1.0435c2.9438,1.0518,4.522,0.5806,5.23-1.3989
		c0.7075-1.979-0.2051-3.3682-3.1489-4.4214L40.4614,163.6807z"/>
	<path class="st0" d="M61.167,144.3428l-1.4072,2.9878c-0.0967,0.2046-0.3809,0.2637-0.6411,0.1411l-9.8286-4.6235
		c-0.1641-0.0771-0.2207-0.0205-0.2417,0.0249c-0.0308,0.0674-0.0049,0.1348,0.0796,0.2578l2.9297,3.8662
		c0.209,0.293,0.2207,0.5757,0.0815,0.8682l-0.853,1.8115c-0.1377,0.2944-0.3618,0.4658-0.7183,0.4927l-4.8491,0.2075
		c-0.1479,0.0132-0.2168,0.0356-0.25,0.1021c-0.022,0.0459-0.0288,0.1265,0.1348,0.2017l9.8271,4.6255
		c0.2588,0.1211,0.3965,0.3804,0.3018,0.583l-1.4063,2.9888c-0.0859,0.1812-0.2529,0.3501-0.5112,0.229l-16.3779-7.7065
		c-0.4961-0.2334-0.6431-0.7158-0.4185-1.1904l1.002-2.1294c0.2227-0.4746,0.6064-0.6807,1.1045-0.6968l8.3477-0.3027
		c0.231-0.0015,0.3809-0.0151,0.4219-0.1064c0.043-0.0898-0.043-0.2139-0.188-0.3911l-5.085-6.6255
		c-0.3062-0.3921-0.3926-0.8198-0.1685-1.2944l1.0005-2.1294c0.2241-0.4746,0.7148-0.6592,1.208-0.4268l16.3555,7.6953
		C61.2754,143.9248,61.251,144.1626,61.167,144.3428"/>
	<path class="st0" d="M61.0703,130.8452c-0.3052,0.5176-0.7563,1.1807-1.0972,1.7061l5.4502,3.2168
		c0.248,0.1445,0.334,0.459,0.1948,0.6948l-1.6401,2.7803c-0.1396,0.2358-0.4341,0.3247-0.6821,0.1802l-15.0723-8.8975
		c-0.7612-0.4521-0.7856-0.8716-0.5029-1.605c0.4683-1.2051,1.3726-2.9951,2.291-4.5474c1.9185-3.2539,5.002-5.7632,9.2188-3.2744
		l0.2017,0.1211C63.6265,123.6948,62.9653,127.6328,61.0703,130.8452 M57.0688,124.7637c-1.5938-0.9409-2.7803-0.3638-3.8481,1.4478
		c-0.1792,0.3022-0.8335,1.5112-0.9629,1.7852l4.5767,2.7002c0.1621-0.2241,0.9336-1.4814,1.0732-1.7192
		c1.1338-1.918,0.8872-3.1943-0.6377-4.0947L57.0688,124.7637z"/>
	<path class="st0" d="M80.2646,114.0732l-2.0103,2.8696c-0.1445,0.2051-0.4307,0.249-0.6714,0.1396l-4.0137-1.7124l-2.9438,4.1997
		l2.98,3.1895c0.1841,0.1899,0.2393,0.4717,0.0967,0.6768l-2.0103,2.8701c-0.145,0.2046-0.3726,0.2573-0.5859,0.1094
		c-0.0205-0.0156-0.0498-0.0674-0.0913-0.0957l-11.083-12.3188c-1.7173-1.9053-0.9731-3.646,0.0171-5.0586
		c0.9927-1.415,2.3604-2.687,4.7368-1.7212l15.3604,6.2124c0.043,0.0298,0.1001,0.0386,0.1206,0.0542
		C80.3799,113.6357,80.4077,113.8691,80.2646,114.0732 M63.4834,111.022c-0.2407-0.1099-0.3774-0.1436-0.5063,0.042
		c-0.1304,0.1836-0.0669,0.3213,0.1187,0.5098l5.0093,5.3745l2.1396-3.0513L63.4834,111.022z"/>
	<path class="st0" d="M78.4717,91.8203c-0.0156,0.019-0.0313,0.0391-0.0483,0.0576c-0.8076,0.8916-2.1274,2.2368-3.4844,3.8745
		c-1.2974,1.5586-1.3145,3.1709,1.3105,5.3491l2.5049,2.0796c2.7642,2.2949,4.4146,1.6143,5.1982,0.6704
		c0.4478-0.5391,0.8271-1.0366,1.1694-1.5322l-4.6074-3.8267c-0.2207-0.1831-0.2739-0.4863-0.0981-0.6982l2.0464-2.4663
		c0.1772-0.2104,0.501-0.2339,0.7212-0.0522l6.7339,5.5898c0.2788,0.2324,0.3203,0.4287,0.1411,0.7676
		c-0.644,1.2217-1.564,2.7368-3.1606,4.6636c-1.8242,2.1958-5.8604,4.4082-10.9297,0.2007l-2.4858-2.062
		c-5.1089-4.2422-3.8501-8.3696-1.5313-11.1621c1.5986-1.9263,3.0508-3.064,3.8037-3.644c0.1997-0.1587,0.3906-0.2275,0.5713-0.0771
		l2.1245,1.7632C78.6714,91.4976,78.6147,91.6475,78.4717,91.8203"/>
	<path class="st0" d="M103.5156,88.0532l-1.7261,1.7441c-0.3682,0.3735-0.7061,0.5684-1.4878,0.3579l-11.3086-3.1606
		c-0.1812-0.0386-0.2549-0.0405-0.3071,0.0137c-0.0532,0.0537-0.0518,0.1255,0.0605,0.2354l7.498,7.4209
		c0.2031,0.2002,0.2124,0.5254,0.0176,0.7207l-2.0757,2.1006c-0.1948,0.1963-0.5205,0.1914-0.7236-0.0103L80.7817,84.9258
		c-0.3896-0.3848-0.4067-0.999-0.0366-1.3726l1.7778-1.7979c0.353-0.3555,0.7148-0.3501,1.3145-0.1797l11.7993,3.3306
		c0.1812,0.0386,0.2363,0.0581,0.2915,0.0029c0.0327-0.0347,0.0479-0.1245-0.0796-0.2539l-7.834-7.7485
		c-0.2031-0.2007-0.1929-0.5078,0.0015-0.7036l2.0776-2.1011c0.1929-0.1953,0.4995-0.21,0.7046-0.0063l12.7002,12.5674
		C103.8877,87.0474,103.8843,87.6797,103.5156,88.0532"/>
	<path class="st0" d="M113.2896,79.7368c-3.1558,2.6631-7.1572,3.0059-11.0537-1.6123l-2-2.3696
		c-3.8965-4.6172-2.8853-8.5034,0.2705-11.1665c3.1577-2.6636,7.1572-3.0054,11.0537,1.6113l1.998,2.3696
		C117.4546,73.1875,116.4453,77.0728,113.2896,79.7368 M108.27,68.9771c-2.0151-2.3887-3.6382-2.7593-5.2437-1.4023
		c-1.6069,1.3545-1.4951,3.0005,0.5205,5.3882l1.998,2.3696c2.0151,2.3877,3.6191,2.7734,5.2246,1.4185
		c1.6069-1.3569,1.5156-3.0166-0.5-5.4058L108.27,68.9771z"/>
	<path class="st0" d="M133.6328,64.1543l-2.0083,1.4067c-0.4307,0.3018-0.7974,0.4312-1.5298,0.0845l-10.5542-5.1367
		c-0.1738-0.0708-0.2441-0.0845-0.3066-0.042c-0.0601,0.042-0.0723,0.1143,0.0195,0.2407l6.0459,8.644
		c0.1616,0.2339,0.1118,0.5552-0.1138,0.7139l-2.4199,1.6934c-0.2241,0.1563-0.543,0.0938-0.7065-0.1416L111.832,57
		c-0.3135-0.4478-0.2188-1.0547,0.2119-1.356l2.0728-1.4487c0.4082-0.2876,0.7632-0.2168,1.3223,0.0591l11.0107,5.3911
		c0.1704,0.0708,0.2222,0.0991,0.2808,0.0571c0.0435-0.0288,0.0742-0.1147-0.0288-0.2646l-6.3169-9.0259
		c-0.1636-0.2344-0.0986-0.5342,0.1274-0.6934l2.4199-1.6919c0.2256-0.1582,0.5288-0.1157,0.6929,0.1191l10.2402,14.6382
		C134.1807,63.2319,134.0635,63.853,133.6328,64.1543"/>
	<path class="st0" d="M151.0718,54.2471c-1.8394,0.9634-3.9102,1.8135-4.9043,2.1274c-0.458,0.1514-0.7866,0.0605-1.0659-0.4712
		l-7.9927-15.2505c-0.2773-0.5308-0.1631-0.855,0.2207-1.1445c0.8252-0.6367,2.7026-1.8564,4.5439-2.8188
		c4.4116-2.311,8.3423-1.2827,10.8936,3.5859l1.5586,2.9775C156.877,48.1206,155.4854,51.9365,151.0718,54.2471 M148.9756,42.2617
		c-1.6348-3.1152-3.354-3.272-5.3501-2.228c-0.5547,0.291-1.251,0.6865-1.5488,0.8716l5.6431,10.7754
		c0.3242-0.1416,1.0459-0.4888,1.5986-0.7793c1.9966-1.0439,2.8472-2.5483,1.2163-5.6641L148.9756,42.2617z"/>
	<path class="st0" d="M172.0767,44.145c-0.7544,0.4619-1.8501,1.1519-4.3369,2.207c-2.9736,1.2607-5.9341,1.5854-7.7842-2.7788
		l-3.373-7.9561c-1.8516-4.3628,0.4736-6.2554,3.4453-7.5146c2.4888-1.0571,3.7241-1.353,4.5801-1.5757
		c0.3428-0.0879,0.5322-0.0283,0.665,0.2847l0.9453,2.2295c0.1104,0.2627-0.0034,0.5659-0.2583,0.6738l-4.6787,1.9839
		c-1.0815,0.4609-1.3105,1.0098-0.7817,2.2559l0.9233,2.1807l5.9688-2.5313c0.2529-0.1074,0.5527,0.021,0.6631,0.2842l0.9663,2.2773
		c0.1123,0.2646-0.0034,0.5679-0.2583,0.6753l-5.9688,2.5313l1.0781,2.54c0.5293,1.2471,1.082,1.4644,2.1655,1.0049l4.6787-1.9844
		c0.2529-0.1074,0.5508,0.0215,0.6631,0.2847l0.9458,2.2295C172.458,43.7568,172.3784,43.96,172.0767,44.145"/>
	<path class="st0" d="M193.4604,17.6001l0.8818,16.5518c0.1396,2.563-1.5083,3.4438-3.1655,3.9233
		c-1.6611,0.4775-3.5469,0.6157-4.7905-1.6279l-8.0493-14.4849c-0.0156-0.0518-0.0449-0.0693-0.0605-0.1191
		c-0.0654-0.2256,0.0757-0.4561,0.3188-0.5254l3.3398-0.9624c0.2412-0.0708,0.4927,0.0737,0.6113,0.3101l7.1626,13.5767
		c0.1274,0.2612,0.2271,0.3403,0.4443,0.2783c0.2173-0.063,0.2583-0.1831,0.229-0.4717L189.23,18.7393
		c-0.0225-0.2646,0.0879-0.5132,0.3291-0.584l3.3657-0.9697c0.2397-0.0688,0.4512,0.0317,0.5239,0.2817
		C193.4556,17.4922,193.4468,17.5508,193.4604,17.6001"/>
	<path class="st0" d="M208.7847,33.8149c-4.0498,0.7993-7.7153-0.8408-8.8833-6.7695l-0.5996-3.041
		c-1.1675-5.9282,1.5986-8.8369,5.6519-9.6362c4.0513-0.7988,7.7153,0.8418,8.8813,6.77l0.6011,3.041
		C215.604,30.1074,212.8359,33.0166,208.7847,33.8149 M209.6133,21.9707c-0.605-3.0654-1.8433-4.1768-3.9053-3.7695
		s-2.7646,1.8999-2.1602,4.9653l0.6011,3.041c0.605,3.0679,1.8174,4.1807,3.8794,3.7749c2.0635-0.4072,2.7891-1.9053,2.1841-4.9707
		L209.6133,21.9707z"/>
	<path class="st0" d="M225.5537,31.208c-1.9639,0.2202-3.4575,0.1528-4.7612-0.042c-0.2583-0.0493-0.5254-0.1768-0.5566-0.4604
		l-0.2837-2.5361c-0.0415-0.3638,0.1426-0.5151,0.3906-0.5435c0.0259-0.002,0.0503-0.0049,0.0737-0.0068
		c1.0337-0.0127,3.792-0.1113,4.7617-0.2207c1.7173-0.1919,2.1479-0.8188,2.0117-2.0601c-0.0864-0.752-0.4805-1.1274-1.8638-1.7837
		l-3.6689-1.7373c-2.4722-1.1626-3.2764-2.7231-3.4868-4.6128c-0.3184-2.8467,0.9756-5.2212,5.8003-5.7617
		c1.8154-0.2051,4.3613-0.1768,5.335-0.0234c0.2046,0.0283,0.3926,0.1396,0.4253,0.4233l0.293,2.6143
		c0.0254,0.2329-0.0518,0.4512-0.3745,0.4883c0,0-0.0234,0.002-0.0498,0.0049c-0.7012,0.0273-3.6118,0.1167-5.3032,0.3071
		c-1.418,0.1592-1.8882,0.6582-1.7847,1.5918c0.0806,0.7222,0.4409,1.0229,1.8672,1.6226l3.3828,1.4287
		c2.749,1.1582,3.7124,2.7793,3.9468,4.8765C232.0146,27.52,230.6025,30.6406,225.5537,31.208"/>
	<path class="st0" d="M251.0039,22.8135c-0.6025-0.0088-1.4019-0.0742-2.0273-0.1113l-0.0996,6.3267
		c-0.0068,0.2861-0.2358,0.5166-0.5098,0.5117l-3.2295-0.0508c-0.2759-0.0059-0.4966-0.2168-0.4932-0.5029l0.2808-17.4941
		c0.0142-0.8857,0.3706-1.1128,1.1475-1.2314c1.2798-0.187,3.2832-0.2856,5.0864-0.2563c3.7813,0.0605,7.4883,1.5015,7.4082,6.3945
		l-0.0029,0.2349C258.4854,21.5024,254.7334,22.8735,251.0039,22.8135 M254.3125,16.3311c0.0322-1.8491-1.0605-2.5952-3.1611-2.6289
		c-0.3521-0.0049-1.73,0.0254-2.0298,0.0444l-0.0859,5.3115c0.2734,0.0298,1.7515,0.0811,2.0259,0.084
		c2.2285,0.0376,3.2207-0.8071,3.249-2.5767L254.3125,16.3311z"/>
	<path class="st0" d="M276.3584,31.0781l-3.8105-0.3418c-0.2754-0.0234-0.3516-0.293-0.4541-0.5635l-2.7529-6.8613l-0.2754,0.002
		c-0.5234-0.0479-1.292-0.168-1.7676-0.21l-0.5889,6.5879c-0.0244,0.2856-0.2695,0.4995-0.541,0.4746l-3.2412-0.2896
		c-0.2764-0.0239-0.4795-0.2764-0.4551-0.5625l1.5566-17.4077c0.0801-0.8818,0.4482-1.083,1.2295-1.145
		c1.165-0.0796,3.2979-0.0459,5.0918,0.1143c4.2383,0.3794,7.373,2.1494,6.96,6.7422l-0.0273,0.3369
		c-0.2451,2.75-1.792,4.311-3.6797,4.8999l3.1104,7.6533c0.041,0.1079,0.0557,0.2134,0.0488,0.291
		C276.748,30.9805,276.6338,31.103,276.3584,31.0781 M273.0762,17.2383c0.1406-1.582-0.9688-2.4126-3.0596-2.5996
		c-0.3525-0.0317-1.6504-0.0957-1.9541-0.0972l-0.4443,4.981c0.2725,0.0513,1.4922,0.186,1.7637,0.21
		c2.6191,0.2354,3.5039-0.3936,3.6621-2.1577L273.0762,17.2383z"/>
	<path class="st0" d="M287.0801,33.0479c-4.0654-0.7178-6.8906-3.5698-5.8398-9.5181l0.5381-3.0518
		c1.0498-5.9492,4.6816-7.6616,8.7471-6.9443c4.0684,0.7163,6.8896,3.5684,5.8389,9.5181l-0.5371,3.0518
		C294.7764,32.0527,291.1445,33.7661,287.0801,33.0479 M292.127,22.3042c0.5439-3.0781-0.21-4.5596-2.2813-4.9248
		c-2.0703-0.3652-3.2627,0.7739-3.8057,3.8496l-0.5381,3.0527c-0.541,3.0771,0.1865,4.5537,2.2568,4.9189
		s3.2861-0.7695,3.8301-3.8452L292.127,22.3042z"/>
	<path class="st0" d="M297.5566,39.6987c-0.5615-0.1377-0.8926-0.2476-1.5332-0.4834c-0.21-0.0801-0.3135-0.293-0.2549-0.521
		l0.6328-2.5786c0.0449-0.1763,0.1875-0.3301,0.3555-0.2876l1.2158,0.2979c0.5586,0.1377,0.7002-0.123,0.8555-0.7549l4.5469-18.4565
		c0.0693-0.2793,0.3379-0.4277,0.6064-0.3623l3.1836,0.7832c0.2646,0.0669,0.4365,0.3228,0.3682,0.6006l-4.5508,18.4585
		C302.1348,39.832,300.0098,40.3018,297.5566,39.6987"/>
	<path class="st0" d="M318.2959,40.6182c-0.875-0.1357-2.1533-0.3159-4.7373-1.1187c-3.0791-0.958-5.5498-2.6245-4.1406-7.1509
		l2.5693-8.2544c1.4102-4.5264,4.4033-4.4688,7.4863-3.5112c2.5811,0.8032,3.7139,1.3745,4.5137,1.7573
		c0.3164,0.1533,0.4209,0.3232,0.3203,0.646l-0.7158,2.3125c-0.0869,0.2749-0.373,0.4312-0.6348,0.3486l-4.8506-1.5063
		c-1.123-0.3486-1.6533-0.0776-2.0576,1.2153l-0.7021,2.2637l6.1875,1.9224c0.2617,0.0806,0.4102,0.3721,0.3232,0.646
		l-0.7334,2.3633c-0.0889,0.2729-0.3711,0.4307-0.6338,0.3477l-6.1865-1.9233l-0.8242,2.6357
		c-0.4023,1.293-0.1201,1.8164,1.002,2.1665l4.8516,1.5078c0.2646,0.0811,0.4102,0.3721,0.3242,0.645l-0.7207,2.3125
		C318.8369,40.5669,318.6475,40.6724,318.2959,40.6182"/>
	<path class="st0" d="M339.8311,32.1904l-3.7695-1.4956l-5.5938,14.0879c-0.1035,0.2671-0.4004,0.4019-0.6553,0.3008l-3.0488-1.2104
		c-0.2549-0.1006-0.3779-0.4019-0.2715-0.6689l5.5918-14.0884l-3.7939-1.5059c-0.2549-0.1025-0.3896-0.3774-0.2822-0.6436
		l0.9883-2.4946c0.1064-0.2661,0.3936-0.3774,0.6475-0.2754l11.541,4.5811c0.2549,0.1011,0.4102,0.3862,0.3076,0.6528
		l-0.9893,2.4946C340.3965,32.1904,340.0859,32.2915,339.8311,32.1904"/>
	<path class="st0" d="M342.5107,50.9961c-1.7773-0.8677-3-1.7271-3.999-2.5908c-0.1895-0.1802-0.3477-0.4307-0.2207-0.688
		l1.1201-2.293c0.1582-0.3281,0.3955-0.3569,0.6201-0.2471c0.0244,0.0103,0.0488,0.0229,0.0693,0.0337
		c0.874,0.543,3.2588,1.9385,4.1367,2.3667c1.5508,0.7588,2.2529,0.4644,2.8008-0.6602c0.3311-0.6787,0.2002-1.2056-0.6162-2.5044
		l-2.1641-3.4336c-1.4639-2.3091-1.3057-4.0576-0.4717-5.7666c1.2578-2.5732,3.625-3.8828,7.9863-1.75
		c1.6426,0.8008,3.7793,2.1909,4.5195,2.8423c0.1553,0.1353,0.2549,0.3291,0.1279,0.5874l-1.1543,2.3633
		c-0.1035,0.21-0.2832,0.3521-0.5752,0.21c0,0-0.0215-0.0112-0.0449-0.0215c-0.6064-0.355-3.1143-1.8394-4.6445-2.5854
		c-1.2773-0.6265-1.9463-0.459-2.3594,0.3823c-0.3164,0.6563-0.1758,1.1025,0.71,2.375l2.0879,3.021
		c1.6982,2.4521,1.6387,4.3374,0.7158,6.2314C349.9424,51.3511,347.0762,53.2256,342.5107,50.9961"/>
	<path class="st0" d="M362.7998,61.9761l-2.8525-1.7622c-0.2344-0.144-0.2588-0.4346-0.1104-0.6802l9.6299-15.6021
		c0.1475-0.2427,0.4063-0.3281,0.6406-0.1836l2.8516,1.7622c0.2344,0.145,0.2969,0.4272,0.1445,0.6704l-9.625,15.6016
		C363.3271,62.0259,363.0342,62.1211,362.7998,61.9761"/>
	<path class="st0" d="M380.8418,74.4771l-2.6768-1.9375c-0.1826-0.1323-0.1855-0.4253-0.0166-0.6563l6.3623-8.7993
		c0.1074-0.1479,0.0625-0.2119,0.0215-0.2417c-0.0625-0.0439-0.1348-0.0322-0.2695,0.0298l-4.3447,2.1611
		c-0.3262,0.1499-0.6025,0.1094-0.8672-0.082l-1.623-1.1738c-0.2617-0.1914-0.3896-0.4434-0.3486-0.7993l0.6934-4.8018
		c0.0166-0.1494,0.0068-0.2222-0.0547-0.2661c-0.042-0.0283-0.1182-0.0508-0.2246,0.0972l-6.3633,8.7983
		c-0.1689,0.2305-0.4473,0.3193-0.627,0.1865l-2.6768-1.9365c-0.165-0.1182-0.2998-0.312-0.1348-0.5454l10.6084-14.665
		c0.3164-0.4429,0.8203-0.4971,1.2471-0.189l1.9043,1.3804c0.4277,0.3081,0.5586,0.7251,0.4834,1.2148l-1.2471,8.2593
		c-0.042,0.2271-0.0596,0.377,0.0234,0.4355c0.083,0.0591,0.2207-0.0029,0.4199-0.1138l7.4551-3.7671
		c0.4414-0.2275,0.875-0.2324,1.3027,0.0757l1.9053,1.3799c0.4268,0.3081,0.5166,0.8232,0.1963,1.2661l-10.5869,14.6431
		C381.2344,74.6621,381.0078,74.5947,380.8418,74.4771"/>
	<path class="st0" d="M397.2783,88.7451l-2.4639-2.1992c-0.168-0.1509-0.1445-0.4409,0.0449-0.6548l7.2324-8.1084
		c0.1201-0.1362,0.082-0.2051,0.0449-0.2378c-0.0557-0.0522-0.1279-0.0449-0.2734,0.0029l-4.54,1.7075
		c-0.3379,0.1162-0.6104,0.0474-0.8545-0.1689l-1.4951-1.3345c-0.2412-0.2153-0.3408-0.4795-0.2656-0.8286l1.1787-4.7075
		c0.0313-0.1479,0.0313-0.2202-0.0273-0.27c-0.0381-0.0337-0.1104-0.0635-0.2305,0.0723l-7.2314,8.1074
		c-0.1895,0.2134-0.4756,0.271-0.6445,0.1211l-2.4668-2.1997c-0.1475-0.1318-0.2617-0.3398-0.0723-0.5542L397.2617,63.98
		c0.3613-0.4077,0.8672-0.4111,1.2607-0.0601l1.7568,1.5669c0.3887,0.3486,0.4785,0.7759,0.3516,1.2578l-2.0811,8.0889
		c-0.0625,0.2222-0.0967,0.3701-0.0205,0.4375c0.0752,0.0654,0.2168,0.0186,0.4307-0.0703l7.7998-2.9927
		c0.4609-0.1787,0.8955-0.1401,1.2881,0.209l1.7568,1.5664c0.3936,0.3491,0.4307,0.8726,0.0654,1.2808l-12.0303,13.4922
		C397.6504,88.9688,397.4307,88.8789,397.2783,88.7451"/>
	<path class="st0" d="M405.6045,97.7627c-2.8066-3.0269-3.3408-7.0073,1.0928-11.1157l2.2744-2.1089
		c4.4297-4.1074,8.3574-3.2788,11.165-0.2515c2.8076,3.0288,3.3379,7.0073-1.0918,11.1157l-2.2744,2.1074
		C412.3408,101.6182,408.4131,100.7915,405.6045,97.7627 M416.1162,92.2471c2.2949-2.126,2.5869-3.7622,1.1582-5.3042
		c-1.4336-1.5415-3.0703-1.353-5.3613,0.771l-2.2734,2.1074c-2.291,2.126-2.6006,3.7432-1.1719,5.2852
		c1.4307,1.5415,3.0879,1.3716,5.3779-0.752L416.1162,92.2471z"/>
	<path class="st0" d="M417.1699,111.3369c-1.0117-1.3037-2.1084-2.9248-2.5625-3.8066c-0.4717-0.9028-0.4336-1.4072,0.4893-2.1255
		l12.502-9.7227c0.9268-0.7197,1.4297-0.6665,2.1494,0.0073c0.627,0.5923,1.9951,2.0967,2.9805,3.3599
		c2.9014,3.7339,3.8242,7.0435,0.5547,9.585l-0.3721,0.2876c-1.333,1.0405-2.9629,1.3228-4.3135,0.6919
		c0.2832,1.4624-0.2539,3.021-1.6738,4.125l-0.3105,0.2407C422.9961,116.792,419.8301,114.7554,417.1699,111.3369 M424.374,110.4585
		c0.9854-0.7676,1.4297-1.937,0.2031-3.5176l-1.7227-2.2119l-3.8438,2.9897c0.2432,0.3159,1.0225,1.3599,1.2393,1.6372
		c1.582,2.0337,2.7461,2.1748,3.8965,1.2793L424.374,110.4585z M430.5234,105.5508c1.1309-0.8799,1.1064-1.9697-0.4756-4.0054
		c-0.2441-0.3154-0.9541-1.2241-1.1875-1.4849l-3.5557,2.7656l1.7188,2.2134c1.2129,1.561,2.3047,1.4399,3.1904,0.752
		L430.5234,105.5508z"/>
	<path class="st0" d="M426.7988,124.2451l-1.8838-2.7754c-0.1514-0.229-0.0547-0.5034,0.1826-0.6646l15.1689-10.2891
		c0.2373-0.1621,0.5059-0.1338,0.6611,0.0957l1.8848,2.7749c0.1523,0.2275,0.0928,0.5093-0.1445,0.6704l-15.1689,10.2886
		C427.2617,124.5073,426.9541,124.4727,426.7988,124.2451"/>
	<path class="st0" d="M435.1748,137.5464c-0.582-0.6152-1.7061-2.1865-2.3877-3.3262c-1.6602-2.77-2.4004-5.6821,1.6641-8.1177
		l11.5518-6.9229c0.2441-0.146,0.5615-0.0737,0.7021,0.1621l1.6846,2.8135c0.1416,0.2358,0.0586,0.5508-0.1895,0.6958
		l-11.5479,6.9238c-1.1641,0.6953-1.2979,1.2759-0.6963,2.2847l2.2129,3.6938c0.1406,0.2358,0.0586,0.5503-0.1904,0.6968
		l-2.0771,1.2441C435.6123,137.8696,435.4219,137.8086,435.1748,137.5464"/>
	<path class="st0" d="M438.9053,144.8022l-1.5605-2.9707c-0.127-0.2432,0-0.5059,0.252-0.6396l16.2334-8.522
		c0.251-0.1328,0.5205-0.0737,0.6475,0.1694l1.5605,2.9683c0.127,0.2451,0.0352,0.5195-0.2178,0.6528l-16.2324,8.5215
		C439.332,145.1143,439.0332,145.0454,438.9053,144.8022"/>
	<path class="st0" d="M445.9854,159.5625c-0.4795-0.7437-1.1924-1.8242-2.3047-4.2886c-1.3301-2.9438-1.7197-5.8975,2.6006-7.8481
		l7.876-3.5566c4.3203-1.9507,6.2627,0.332,7.5938,3.2739c1.1084,2.4658,1.4365,3.6924,1.6777,4.5435
		c0.0957,0.3418,0.041,0.5313-0.2695,0.6724l-2.2041,0.9946c-0.2627,0.1177-0.5693,0.0083-0.6836-0.2412l-2.0898-4.6323
		c-0.4834-1.0732-1.0371-1.29-2.2715-0.7319l-2.1592,0.9751l2.666,5.9092c0.1104,0.2529-0.0068,0.5537-0.2686,0.6719l-2.2568,1.0186
		c-0.2578,0.1157-0.5654,0.0078-0.6777-0.2422l-2.667-5.9111l-2.5146,1.1357c-1.2344,0.5581-1.4404,1.1172-0.9551,2.1895
		l2.0879,4.6323c0.1143,0.2505-0.0068,0.5518-0.2686,0.6704l-2.2051,0.9956C446.3818,159.9331,446.1748,159.8604,445.9854,159.5625"
		/>
	<path class="st0" d="M452.5488,177.5068l-1.2861-3.6084c-0.0918-0.2593,0.1182-0.4404,0.3213-0.646l5.085-5.3726l-0.1201-0.2505
		c-0.1729-0.4961-0.3857-1.2437-0.5449-1.6919l-6.2324,2.2202c-0.2725,0.0962-0.5684-0.0366-0.6582-0.2959l-1.0918-3.0659
		c-0.0928-0.2593,0.0518-0.5498,0.3232-0.647l16.4648-5.8647c0.833-0.2983,1.1719-0.0459,1.5537,0.6406
		c0.5576,1.0244,1.4189,2.9751,2.0225,4.6733c1.4287,4.0098,1.1328,7.5962-3.2109,9.1445l-0.3203,0.1133
		c-2.6016,0.9248-4.665,0.1738-5.9912-1.293l-5.6494,6.0249c-0.083,0.0835-0.1729,0.1416-0.2451,0.1685
		C452.7959,177.8154,452.6377,177.7661,452.5488,177.5068 M463.7451,168.7329c1.498-0.5337,1.791-1.8848,1.085-3.8662
		c-0.1172-0.3311-0.6035-1.5396-0.7305-1.812l-4.71,1.6758c0.0693,0.2686,0.4551,1.4331,0.5449,1.6924
		c0.8818,2.4771,1.8223,3.0171,3.4941,2.4233L463.7451,168.7329z"/>
	<path class="st0" d="M454.8359,186.5654c-0.5098-1.9102-0.665-3.397-0.6689-4.7188c0.0146-0.2607,0.0967-0.5425,0.376-0.6172
		l2.4629-0.6592c0.3555-0.0933,0.5313,0.0669,0.5967,0.3086c0.0068,0.0225,0.0137,0.0474,0.0205,0.0728
		c0.1621,1.0171,0.6719,3.7295,0.9238,4.6733c0.4434,1.6689,1.126,2.0034,2.335,1.6807c0.7305-0.1938,1.0439-0.6396,1.4854-2.106
		l1.1738-3.8892c0.7861-2.6172,2.209-3.6455,4.0449-4.1353c2.7695-0.7412,5.3057,0.1865,6.5596,4.8789
		c0.4717,1.7637,0.8242,4.2852,0.8164,5.271c0,0.209-0.0791,0.4111-0.3574,0.4854l-2.5391,0.6792
		c-0.2285,0.0596-0.4551,0.0171-0.5381-0.2959c0,0-0.0068-0.0249-0.0137-0.0503c-0.1318-0.689-0.6514-3.5547-1.0928-5.1992
		c-0.3682-1.3784-0.9297-1.7705-1.835-1.5298c-0.707,0.189-0.9512,0.5894-1.3311,2.0903l-0.9121,3.5601
		c-0.7373,2.8911-2.1982,4.0854-4.2344,4.6279C459.4385,192.4053,456.1445,191.4741,454.8359,186.5654"/>
	<path class="st0" d="M410.5488,399.5742c12.2334-12.417,23.083-26.207,32.2666-41.0488
		c9.1514-14.8613,16.458-30.8506,21.9561-47.4297c5.543-16.5801,8.9326-33.8604,10.4004-51.2954l0.5205-6.5439l0.2041-6.5605
		c0.1855-4.377,0.1855-8.7568,0.0439-13.1348c-0.2646-8.7539-1.0361-17.4966-2.3115-26.1655
		c-0.1104-0.7593,0.4141-1.4644,1.1709-1.5757c0.748-0.1094,1.4434,0.3975,1.5713,1.1357l0.0029,0.02
		c1.5098,8.7427,2.5088,17.582,3.002,26.4604c0.2549,4.4375,0.3682,8.8867,0.2881,13.3369l-0.0371,6.6768l-0.3652,6.6699
		c-1.0508,17.7837-4.0723,35.519-9.3193,52.6372c-5.2119,17.1191-12.3057,33.7275-21.3525,49.2686
		c-9.0742,15.5176-19.9229,30.0381-32.2773,43.209c-1.5264,1.6299-4.082,1.709-5.708,0.1826
		c-1.6299-1.5264-1.71-4.082-0.1836-5.7119c0.0186-0.0176,0.0352-0.0381,0.0557-0.0586L410.5488,399.5742z"/>
</g>
<g>
</g>
<g>
</g>
<g>
</g>
<g>
</g>
<g>
</g>
<g>
</g>
<g>
</g>
<g>
</g>
<g>
</g>
<g>
</g>
<g>
</g>
<g>
</g>
<g>
</g>
<g>
</g>
<g>
</g>
</svg>
